<?xml version="1.0" standalone="no"?>
<!DOCTYPE svg PUBLIC "-//W3C//DTD SVG 20010904//EN"
 "http://www.w3.org/TR/2001/REC-SVG-20010904/DTD/svg10.dtd">
<svg version="1.0" xmlns="http://www.w3.org/2000/svg"
 width="1080.000000pt" height="1080.000000pt" viewBox="0 0 1080.000000 1080.000000"
 preserveAspectRatio="xMidYMid meet">
<metadata>
Created by potrace 1.14, written by Peter Selinger 2001-2017
</metadata>
<g transform="translate(0.000000,1080.000000) scale(0.100000,-0.100000)"
fill="#000000" stroke="none">
<path d="M3280 9414 c-88 -16 -202 -76 -269 -143 -51 -50 -171 -233 -171 -260
0 -6 -3 -11 -7 -11 -5 0 -13 -10 -19 -23 -6 -12 -35 -65 -65 -117 -31 -52 -67
-115 -81 -140 -48 -86 -228 -395 -238 -410 -6 -8 -13 -22 -17 -30 -4 -8 -34
-62 -68 -120 -68 -117 -147 -254 -347 -600 -75 -129 -144 -249 -154 -267 -11
-17 -48 -83 -84 -145 -36 -62 -70 -122 -77 -133 -7 -11 -16 -27 -20 -35 -4 -8
-50 -89 -103 -180 -54 -91 -166 -284 -250 -430 -489 -850 -471 -813 -474 -955
-3 -131 28 -220 145 -414 22 -34 39 -65 39 -67 0 -3 25 -45 55 -95 30 -50 55
-92 55 -95 0 -2 17 -33 38 -67 21 -35 41 -70 45 -77 4 -8 21 -37 38 -65 16
-27 33 -58 36 -67 3 -10 9 -18 14 -18 5 0 9 -5 9 -10 0 -6 48 -92 106 -193 59
-100 118 -202 132 -227 13 -25 39 -70 57 -100 18 -30 42 -71 53 -90 11 -19 45
-78 75 -131 31 -53 69 -119 84 -146 29 -51 216 -375 244 -421 9 -15 27 -47 41
-72 14 -25 54 -95 90 -156 36 -61 68 -117 71 -125 4 -8 15 -27 26 -44 20 -34
464 -801 563 -975 79 -139 109 -182 160 -232 67 -67 180 -126 271 -143 45 -8
634 -11 2142 -10 2012 1 2082 1 2140 20 33 10 77 29 97 42 21 13 41 23 44 23
4 0 30 20 59 45 49 42 94 100 143 185 11 19 52 91 92 160 40 69 83 145 97 170
14 25 40 70 58 100 18 30 66 114 107 185 41 72 101 175 133 230 32 55 67 116
78 135 11 19 28 49 38 65 11 17 22 36 26 44 3 8 36 64 71 125 36 61 78 136 95
166 16 30 35 62 41 70 6 8 16 24 22 35 56 103 80 144 95 167 11 14 19 28 19
31 0 4 45 82 90 157 39 64 110 195 110 202 0 4 4 8 9 8 5 0 11 8 15 18 3 9 14
31 23 47 39 64 139 238 158 273 11 21 31 55 44 77 26 42 256 439 299 515 13
25 48 86 77 135 29 50 62 106 73 125 11 19 48 84 82 143 34 59 71 138 82 175
41 135 23 297 -48 415 -18 32 -34 61 -34 63 0 3 -47 85 -104 182 -189 323
-246 424 -246 433 0 5 -4 9 -10 9 -5 0 -10 5 -10 11 0 6 -23 49 -51 97 -29 48
-63 107 -77 132 -14 25 -42 74 -64 109 -21 34 -38 65 -38 66 0 2 -52 92 -115
201 -63 108 -115 198 -115 200 0 3 -11 21 -23 42 -13 20 -35 57 -49 82 -24 43
-109 188 -128 220 -8 13 -79 137 -141 245 -37 65 -79 137 -100 175 -12 19 -66
114 -122 210 -55 96 -140 243 -189 327 -48 83 -97 169 -109 190 -12 21 -46 80
-76 131 -30 51 -60 102 -66 115 -83 157 -180 309 -233 363 -68 68 -190 136
-274 150 -73 13 -4170 11 -4240 -2z"/>
</g>
</svg>
